<?xml version="1.0" encoding="UTF-8"?>
<svg width="670px" height="499px" viewBox="0 0 670 499" version="1.1" xmlns="http://www.w3.org/2000/svg" xmlns:xlink="http://www.w3.org/1999/xlink">
    <!-- Generator: Sketch 47 (45396) - http://www.bohemiancoding.com/sketch -->
    <title>stars</title>
    <desc>Created with Sketch.</desc>
    <defs></defs>
    <g id="Page-1" stroke="none" stroke-width="1" fill="none" fill-rule="evenodd" opacity="0.5">
        <g id="stars-opacity" fill-rule="nonzero" fill="#57E0EF">
            <g id="Promo">
                <g id="Dribbble-Copy-24" opacity="0.499943388">
                    <path d="M36.880539,189.05811 C35.792871,189.508801 34.926054,189.914418 34.280063,190.274971 C33.634073,190.635524 33.130808,190.993067 32.770255,191.347611 C32.415711,191.702154 32.058168,192.200912 31.697615,192.843898 C31.337062,193.486885 30.925437,194.367222 30.462727,195.484936 L30.093162,195.484936 C29.624443,194.367222 29.209813,193.486885 28.84926,192.843898 C28.488707,192.200912 28.134168,191.702154 27.785634,191.347611 C27.425081,190.993067 26.921816,190.635524 26.275825,190.274971 C25.629834,189.914418 24.760013,189.508801 23.666336,189.05811 L23.666336,188.688545 C24.766022,188.237854 25.638848,187.832238 26.284839,187.471685 C26.93083,187.111131 27.43109,186.753588 27.785634,186.399045 C28.134168,186.044501 28.488707,185.545743 28.84926,184.902757 C29.209813,184.25977 29.624443,183.379433 30.093162,182.261719 L30.462727,182.261719 C30.925437,183.379433 31.337062,184.25977 31.697615,184.902757 C32.058168,185.545743 32.415711,186.044501 32.770255,186.399045 C33.11879,186.753588 33.616045,187.111131 34.262036,187.471685 C34.908027,187.832238 35.780853,188.237854 36.880539,188.688545 L36.880539,189.05811 Z M240.214204,41.390349 C239.126535,41.84104 238.259719,42.246656 237.613728,42.607209 C236.967737,42.967763 236.464472,43.325306 236.103919,43.679849 C235.749376,44.034393 235.391832,44.533151 235.031279,45.176137 C234.670726,45.819123 234.259101,46.699461 233.796391,47.817175 L233.426826,47.817175 C232.958107,46.699461 232.543477,45.819123 232.182924,45.176137 C231.822371,44.533151 231.467833,44.034393 231.119298,43.679849 C230.758745,43.325306 230.255481,42.967763 229.60949,42.607209 C228.963499,42.246656 228.093678,41.84104 227,41.390349 L227,41.020784 C228.099687,40.5700926 228.972513,40.1644764 229.618504,39.8039234 C230.264494,39.4433703 230.764754,39.0858272 231.119298,38.7312834 C231.467833,38.3767395 231.822371,37.8779819 232.182924,37.2349956 C232.543477,36.5920093 232.958107,35.7116721 233.426826,34.5939576 L233.796391,34.5939576 C234.259101,35.7116721 234.670726,36.5920093 235.031279,37.2349956 C235.391832,37.8779819 235.749376,38.3767395 236.103919,38.7312834 C236.452454,39.0858272 236.949709,39.4433703 237.5957,39.8039234 C238.241691,40.1644764 239.114517,40.5700926 240.214204,41.020784 L240.214204,41.390349 Z M273.581391,195.669719 C272.493723,196.12041 271.626906,196.526026 270.980915,196.886579 C270.334924,197.247132 269.83166,197.604676 269.471107,197.959219 C269.116563,198.313763 268.75902,198.812521 268.398467,199.455507 C268.037914,200.098493 267.626289,200.978831 267.163579,202.096545 L266.794014,202.096545 C266.325295,200.978831 265.910665,200.098493 265.550112,199.455507 C265.189559,198.812521 264.83502,198.313763 264.486486,197.959219 C264.125933,197.604676 263.622668,197.247132 262.976677,196.886579 C262.330686,196.526026 261.460865,196.12041 260.367188,195.669719 L260.367188,195.300154 C261.466874,194.849462 262.3397,194.443846 262.985691,194.083293 C263.631682,193.72274 264.131942,193.365197 264.486486,193.010653 C264.83502,192.656109 265.189559,192.157352 265.550112,191.514366 C265.910665,190.871379 266.325295,189.991042 266.794014,188.873328 L267.163579,188.873328 C267.626289,189.991042 268.037914,190.871379 268.398467,191.514366 C268.75902,192.157352 269.116563,192.656109 269.471107,193.010653 C269.819642,193.365197 270.316897,193.72274 270.962888,194.083293 C271.608879,194.443846 272.481704,194.849462 273.581391,195.300154 L273.581391,195.669719 Z M425.865554,14.0092089 C424.777886,14.4599002 423.911069,14.8655163 423.265078,15.2260694 C422.619087,15.5866225 422.115823,15.9441656 421.75527,16.2987094 C421.400726,16.6532533 421.043183,17.1520108 420.68263,17.7949972 C420.322077,18.4379835 419.910452,19.3183207 419.447742,20.4360352 L419.078177,20.4360352 C418.609458,19.3183207 418.194828,18.4379835 417.834275,17.7949972 C417.473722,17.1520108 417.119183,16.6532533 416.770649,16.2987094 C416.410096,15.9441656 415.906831,15.5866225 415.26084,15.2260694 C414.614849,14.8655163 413.745028,14.4599002 412.651351,14.0092089 L412.651351,13.6396438 C413.751037,13.1889525 414.623863,12.7833364 415.269854,12.4227833 C415.915845,12.0622303 416.416105,11.7046872 416.770649,11.3501433 C417.119183,10.9955995 417.473722,10.4968419 417.834275,9.8538556 C418.194828,9.2108693 418.609458,8.3305321 419.078177,7.2128176 L419.447742,7.2128176 C419.910452,8.3305321 420.322077,9.2108693 420.68263,9.8538556 C421.043183,10.4968419 421.400726,10.9955995 421.75527,11.3501433 C422.103805,11.7046872 422.60106,12.0622303 423.247051,12.4227833 C423.893042,12.7833364 424.765867,13.1889525 425.865554,13.6396438 L425.865554,14.0092089 Z M13.6546168,7.3976001 C12.5669484,7.8482914 11.7001318,8.2539075 11.0541409,8.6144606 C10.4081499,8.9750137 9.9048855,9.3325568 9.5443324,9.6871006 C9.1897886,10.0416445 8.8322455,10.5404021 8.4716924,11.1833884 C8.1111394,11.8263747 7.6995141,12.7067119 7.2368044,13.8244264 L6.8672393,13.8244264 C6.3985203,12.7067119 5.9838905,11.8263747 5.6233374,11.1833884 C5.2627844,10.5404021 4.9082458,10.0416445 4.5597112,9.6871006 C4.1991582,9.3325568 3.6958937,8.9750137 3.0499028,8.6144606 C2.4039119,8.2539075 1.5340907,7.8482914 0.440413,7.3976001 L0.440413,7.028035 C1.5400999,6.5773437 2.4129257,6.1717276 3.0589166,5.8111745 C3.7049075,5.4506215 4.2051674,5.0930784 4.5597112,4.7385345 C4.9082458,4.3839907 5.2627844,3.8852331 5.6233374,3.2422468 C5.9838905,2.5992605 6.3985203,1.7189233 6.8672393,0.6012088 L7.2368044,0.6012088 C7.6995141,1.7189233 8.1111394,2.5992605 8.4716924,3.2422468 C8.8322455,3.8852331 9.1897886,4.3839907 9.5443324,4.7385345 C9.8928671,5.0930784 10.3901224,5.4506215 11.0361133,5.8111745 C11.6821042,6.1717276 12.55493,6.5773437 13.6546168,7.028035 L13.6546168,7.3976001 Z M489.861008,182.446501 C488.77334,182.897193 487.906523,183.302809 487.260532,183.663362 C486.614541,184.023915 486.111277,184.381458 485.750724,184.736002 C485.39618,185.090546 485.038637,185.589303 484.678084,186.23229 C484.317531,186.875276 483.905905,187.755613 483.443196,188.873328 L483.073631,188.873328 C482.604912,187.755613 482.190282,186.875276 481.829729,186.23229 C481.469176,185.589303 481.114637,185.090546 480.766103,184.736002 C480.405549,184.381458 479.902285,184.023915 479.256294,183.663362 C478.610303,183.302809 477.740482,182.897193 476.646804,182.446501 L476.646804,182.076936 C477.746491,181.626245 478.619317,181.220629 479.265308,180.860076 C479.911299,180.499523 480.411559,180.14198 480.766103,179.787436 C481.114637,179.432892 481.469176,178.934134 481.829729,178.291148 C482.190282,177.648162 482.604912,176.767824 483.073631,175.65011 L483.443196,175.65011 C483.905905,176.767824 484.317531,177.648162 484.678084,178.291148 C485.038637,178.934134 485.39618,179.432892 485.750724,179.787436 C486.099258,180.14198 486.596514,180.499523 487.242505,180.860076 C487.888496,181.220629 488.761321,181.626245 489.861008,182.076936 L489.861008,182.446501 Z M439.079758,338.429765 C437.99209,338.880456 437.125273,339.286073 436.479282,339.646626 C435.833291,340.007179 435.330027,340.364722 434.969474,340.719266 C434.61493,341.07381 434.257387,341.572567 433.896834,342.215553 C433.536281,342.85854 433.124655,343.738877 432.661946,344.856591 L432.292381,344.856591 C431.823662,343.738877 431.409032,342.85854 431.048479,342.215553 C430.687926,341.572567 430.333387,341.07381 429.984853,340.719266 C429.624299,340.364722 429.121035,340.007179 428.475044,339.646626 C427.829053,339.286073 426.959232,338.880456 425.865554,338.429765 L425.865554,338.0602 C426.965241,337.609509 427.838067,337.203893 428.484058,336.84334 C429.130049,336.482787 429.630309,336.125243 429.984853,335.7707 C430.333387,335.416156 430.687926,334.917398 431.048479,334.274412 C431.409032,333.631426 431.823662,332.751088 432.292381,331.633374 L432.661946,331.633374 C433.124655,332.751088 433.536281,333.631426 433.896834,334.274412 C434.257387,334.917398 434.61493,335.416156 434.969474,335.7707 C435.318008,336.125243 435.815264,336.482787 436.461255,336.84334 C437.107246,337.203893 437.980071,337.609509 439.079758,338.0602 L439.079758,338.429765 Z M320.622727,450.151299 C319.535058,450.60199 318.668242,451.007606 318.022251,451.368159 C317.37626,451.728712 316.872996,452.086255 316.512443,452.440799 C316.157899,452.795343 315.800356,453.294101 315.439802,453.937087 C315.079249,454.580073 314.667624,455.46041 314.204914,456.578125 L313.835349,456.578125 C313.36663,455.46041 312.952001,454.580073 312.591448,453.937087 C312.230894,453.294101 311.876356,452.795343 311.527821,452.440799 C311.167268,452.086255 310.664004,451.728712 310.018013,451.368159 C309.372022,451.007606 308.502201,450.60199 307.408523,450.151299 L307.408523,449.781734 C308.50821,449.331042 309.381036,448.925426 310.027027,448.564873 C310.673018,448.20432 311.173277,447.846777 311.527821,447.492233 C311.876356,447.137689 312.230894,446.638932 312.591448,445.995945 C312.952001,445.352959 313.36663,444.472622 313.835349,443.354907 L314.204914,443.354907 C314.667624,444.472622 315.079249,445.352959 315.439802,445.995945 C315.800356,446.638932 316.157899,447.137689 316.512443,447.492233 C316.860977,447.846777 317.358232,448.20432 318.004223,448.564873 C318.650214,448.925426 319.52304,449.331042 320.622727,449.781734 L320.622727,450.151299 Z M636.725283,14.0092089 C635.637614,14.4599002 634.770798,14.8655163 634.124807,15.2260694 C633.478816,15.5866225 632.975551,15.9441656 632.614998,16.2987094 C632.260454,16.6532533 631.902911,17.1520108 631.542358,17.7949972 C631.181805,18.4379835 630.77018,19.3183207 630.30747,20.4360352 L629.937905,20.4360352 C629.469186,19.3183207 629.054556,18.4379835 628.694003,17.7949972 C628.33345,17.1520108 627.978912,16.6532533 627.630377,16.2987094 C627.269824,15.9441656 626.766559,15.5866225 626.120569,15.2260694 C625.474578,14.8655163 624.604756,14.4599002 623.511079,14.0092089 L623.511079,13.6396438 C624.610766,13.1889525 625.483591,12.7833364 626.129582,12.4227833 C626.775573,12.0622303 627.275833,11.7046872 627.630377,11.3501433 C627.978912,10.9955995 628.33345,10.4968419 628.694003,9.8538556 C629.054556,9.2108693 629.469186,8.3305321 629.937905,7.2128176 L630.30747,7.2128176 C630.77018,8.3305321 631.181805,9.2108693 631.542358,9.8538556 C631.902911,10.4968419 632.260454,10.9955995 632.614998,11.3501433 C632.963533,11.7046872 633.460788,12.0622303 634.106779,12.4227833 C634.75277,12.7833364 635.625596,13.1889525 636.725283,13.6396438 L636.725283,14.0092089 Z M184.930681,338.429765 C183.843012,338.880456 182.976196,339.286073 182.330205,339.646626 C181.684214,340.007179 181.180949,340.364722 180.820396,340.719266 C180.465852,341.07381 180.108309,341.572567 179.747756,342.215553 C179.387203,342.85854 178.975578,343.738877 178.512868,344.856591 L178.143303,344.856591 C177.674584,343.738877 177.259954,342.85854 176.899401,342.215553 C176.538848,341.572567 176.18431,341.07381 175.835775,340.719266 C175.475222,340.364722 174.971958,340.007179 174.325967,339.646626 C173.679976,339.286073 172.810155,338.880456 171.716477,338.429765 L171.716477,338.0602 C172.816164,337.609509 173.68899,337.203893 174.33498,336.84334 C174.980971,336.482787 175.481231,336.125243 175.835775,335.7707 C176.18431,335.416156 176.538848,334.917398 176.899401,334.274412 C177.259954,333.631426 177.674584,332.751088 178.143303,331.633374 L178.512868,331.633374 C178.975578,332.751088 179.387203,333.631426 179.747756,334.274412 C180.108309,334.917398 180.465852,335.416156 180.820396,335.7707 C181.168931,336.125243 181.666186,336.482787 182.312177,336.84334 C182.958168,337.203893 183.830994,337.609509 184.930681,338.0602 L184.930681,338.429765 Z M102.223649,491.796391 C101.135981,492.247083 100.269164,492.652699 99.623173,493.013252 C98.977183,493.373805 98.473918,493.731348 98.113365,494.085892 C97.758821,494.440436 97.401278,494.939193 97.040725,495.58218 C96.680172,496.225166 96.268547,497.105503 95.805837,498.223218 L95.436272,498.223218 C94.967553,497.105503 94.552923,496.225166 94.19237,495.58218 C93.831817,494.939193 93.477278,494.440436 93.128744,494.085892 C92.768191,493.731348 92.264926,493.373805 91.618935,493.013252 C90.972945,492.652699 90.103123,492.247083 89.009446,491.796391 L89.009446,491.426826 C90.109133,490.976135 90.981958,490.570519 91.627949,490.209966 C92.27394,489.849413 92.7742,489.49187 93.128744,489.137326 C93.477278,488.782782 93.831817,488.284024 94.19237,487.641038 C94.552923,486.998052 94.967553,486.117715 95.436272,485 L95.805837,485 C96.268547,486.117715 96.680172,486.998052 97.040725,487.641038 C97.401278,488.284024 97.758821,488.782782 98.113365,489.137326 C98.4619,489.49187 98.959155,489.849413 99.605146,490.209966 C100.251137,490.570519 101.123963,490.976135 102.223649,491.426826 L102.223649,491.796391 Z M585.356462,463.374516 C584.268794,463.825208 583.401977,464.230824 582.755986,464.591377 C582.109995,464.95193 581.606731,465.309473 581.246178,465.664017 C580.891634,466.018561 580.534091,466.517318 580.173538,467.160305 C579.812984,467.803291 579.401359,468.683628 578.938649,469.801343 L578.569084,469.801343 C578.100365,468.683628 577.685736,467.803291 577.325183,467.160305 C576.96463,466.517318 576.610091,466.018561 576.261556,465.664017 C575.901003,465.309473 575.397739,464.95193 574.751748,464.591377 C574.105757,464.230824 573.235936,463.825208 572.142258,463.374516 L572.142258,463.004951 C573.241945,462.55426 574.114771,462.148644 574.760762,461.788091 C575.406753,461.427538 575.907012,461.069995 576.261556,460.715451 C576.610091,460.360907 576.96463,459.862149 577.325183,459.219163 C577.685736,458.576177 578.100365,457.69584 578.569084,456.578125 L578.938649,456.578125 C579.401359,457.69584 579.812984,458.576177 580.173538,459.219163 C580.534091,459.862149 580.891634,460.360907 581.246178,460.715451 C581.594712,461.069995 582.091968,461.427538 582.737958,461.788091 C583.383949,462.148644 584.256775,462.55426 585.356462,463.004951 L585.356462,463.374516 Z M669.618181,325.206548 C668.530512,325.657239 667.663696,326.062855 667.017705,326.423408 C666.371714,326.783961 665.868449,327.141504 665.507896,327.496048 C665.153352,327.850592 664.795809,328.34935 664.435256,328.992336 C664.074703,329.635322 663.663078,330.515659 663.200368,331.633374 L662.830803,331.633374 C662.362084,330.515659 661.947454,329.635322 661.586901,328.992336 C661.226348,328.34935 660.87181,327.850592 660.523275,327.496048 C660.162722,327.141504 659.659458,326.783961 659.013467,326.423408 C658.367476,326.062855 657.497655,325.657239 656.403977,325.206548 L656.403977,324.836983 C657.503664,324.386291 658.37649,323.980675 659.02248,323.620122 C659.668471,323.259569 660.168731,322.902026 660.523275,322.547482 C660.87181,322.192938 661.226348,321.694181 661.586901,321.051194 C661.947454,320.408208 662.362084,319.527871 662.830803,318.410156 L663.200368,318.410156 C663.663078,319.527871 664.074703,320.408208 664.435256,321.051194 C664.795809,321.694181 665.153352,322.192938 665.507896,322.547482 C665.856431,322.902026 666.353686,323.259569 666.999677,323.620122 C667.645668,323.980675 668.518494,324.386291 669.618181,324.836983 L669.618181,325.206548 Z" id="stars"></path>
                </g>
            </g>
        </g>
    </g>
</svg>